# File created by Blade
# Date/Time:  Thu Sep 25 17:14:50 2014
# Frame Rate: 120.000 fps
#------------------------------------------------------
:FULLY-SPECIFIED
:DEGREES
304
root 50.630161 33.179993 -1.360333 174.473560 -80.811761 -155.741807
Spine -8.661851 8.691310 4.576115
Head -0.143464 -4.645083 3.424070
LeftShoulder -11.707426 13.715175 30.437965
LeftArm 19.172091 -52.909739 -31.290590
LeftForeArm -35.774450 0.000000 19.993443
LeftHand -17.137422 -0.000000 0.553189
LeftHandThumb1 -26.253704 0.000000 33.147579
RightShoulder -19.325989 21.723462 -47.170832
RightArm -4.547584 47.836448 31.091318
RightForeArm 30.017161 -0.000000 38.103647
RightHand -4.854602 -0.000000 -34.089854
RightHandThumb1 -24.326973 -0.000000 -32.862282
LeftUpLeg -7.553623 6.560471 -3.978495
LeftLeg -6.709833 -0.000000 0.000000
LeftFoot -35.658515 25.200829 -50.956187
LeftToeBase 34.492186 -0.000000 -0.000000
RightUpLeg -34.831595 -3.322195 4.400405
RightLeg 22.835421 -0.000000 -0.000000
RightFoot -12.236668 -0.982766 1.638407
RightToeBase -2.501128 -0.000000 0.000000
305
root 50.792859 33.219934 -1.341645 175.127991 -80.493405 -156.483951
Spine -8.468692 8.968771 4.642331
Head -0.211365 -4.494002 3.055725
LeftShoulder -11.642345 13.428616 30.766042
LeftArm 20.067669 -54.173608 -31.929613
LeftForeArm -35.009741 -0.000000 20.400532
LeftHand -17.128700 0.000000 0.257541
LeftHandThumb1 -26.253704 0.000000 33.147579
RightShoulder -19.208819 22.100736 -47.573676
RightArm -3.637067 48.219563 31.285860
RightForeArm 30.262968 -0.000000 38.541491
RightHand -4.783732 0.000000 -33.855706
RightHandThumb1 -24.326973 -0.000000 -32.862282
LeftUpLeg -7.941360 6.584855 -4.056899
LeftLeg -6.557466 -0.000000 0.000000
LeftFoot -37.093308 25.405134 -52.428751
LeftToeBase 39.716130 -0.000000 -0.000000
RightUpLeg -34.961241 -2.844097 4.250028
RightLeg 24.546627 -0.000000 -0.000000
RightFoot -12.698771 -2.430131 0.925146
RightToeBase -1.937137 -0.000000 0.000000
306
root 50.943350 33.261919 -1.321345 175.765071 -80.282340 -157.237643
Spine -8.297135 9.134004 4.717816
Head -0.195777 -4.333249 2.653448
LeftShoulder -11.566867 13.104796 31.050379
LeftArm 20.577144 -54.882521 -32.136437
LeftForeArm -34.671361 -0.000000 20.910865
LeftHand -16.997707 -0.000000 0.139874
LeftHandThumb1 -26.253704 0.000000 33.147579
RightShoulder -19.054426 22.458677 -47.979127
RightArm -2.699621 48.597990 31.539799
RightForeArm 30.689414 0.000000 39.036502
RightHand -4.604802 -0.000000 -33.218677
RightHandThumb1 -24.326973 -0.000000 -32.862282
LeftUpLeg -8.271912 6.494693 -4.144968
LeftLeg -6.388483 -0.000000 0.000000
LeftFoot -38.288402 25.661431 -53.741761
LeftToeBase 44.002787 -0.000000 -0.000000
RightUpLeg -35.028121 -2.633857 4.137565
RightLeg 26.365447 -0.000000 -0.000000
RightFoot -13.100324 -3.373349 0.454884
RightToeBase -2.283836 -0.000000 0.000000
307
root 51.084456 33.302266 -1.304535 176.392098 -80.058143 -157.989916
Spine -8.151033 9.334622 4.780049
Head -0.122429 -4.236164 2.264451
LeftShoulder -11.473089 12.728944 31.325959
LeftArm 20.895581 -55.268173 -32.057072
LeftForeArm -34.586870 -0.000000 21.374924
LeftHand -16.836981 -0.000000 0.163722
LeftHandThumb1 -26.253704 0.000000 33.147579
RightShoulder -18.994611 22.820720 -48.388159
RightArm -1.500660 48.973596 32.018884
RightForeArm 30.738205 -0.000000 39.465737
RightHand -4.530101 0.000000 -32.717091
RightHandThumb1 -24.326973 -0.000000 -32.862282
LeftUpLeg -8.580208 6.638460 -4.282364
LeftLeg -6.146677 -0.000000 0.000000
LeftFoot -38.875081 25.732655 -54.591898
LeftToeBase 45.588568 -0.000000 -0.000000
RightUpLeg -35.016947 -2.357126 4.028989
RightLeg 28.213677 -0.000000 -0.000000
RightFoot -13.553006 -4.047542 0.193422
RightToeBase -2.109320 -0.000000 0.000000
308
root 51.219020 33.339536 -1.287572 176.859708 -79.942030 -158.639878
Spine -7.951551 9.412526 4.876547
Head -0.040901 -4.050450 1.870252
LeftShoulder -11.444599 12.613620 31.519235
LeftArm 21.560905 -55.792238 -32.207873
LeftForeArm -34.435087 -0.000000 21.762629
LeftHand -16.736277 -0.000000 0.232809
LeftHandThumb1 -26.253704 0.000000 33.147579
RightShoulder -18.871359 23.231681 -48.804854
RightArm -0.425524 49.286624 32.391303
RightForeArm 31.074387 -0.000000 39.868974
RightHand -4.371544 0.000000 -32.281654
RightHandThumb1 -24.326973 -0.000000 -32.862282
LeftUpLeg -8.832155 6.828278 -4.437892
LeftLeg -5.881047 -0.000000 0.000000
LeftFoot -39.438781 25.702648 -55.375370
LeftToeBase 47.898703 -0.000000 -0.000000
RightUpLeg -34.941531 -2.376283 4.030510
RightLeg 30.083142 -0.000000 -0.000000
RightFoot -13.869528 -4.758656 0.089081
RightToeBase -3.032623 -0.000000 0.000000
309
root 51.347435 33.375855 -1.274482 177.179650 -79.846108 -159.095133
Spine -7.867148 9.516582 4.983014
Head 0.188522 -3.970490 1.533596
LeftShoulder -11.323532 12.224767 31.829815
LeftArm 21.943047 -56.034651 -32.152431
LeftForeArm -34.233654 -0.000000 22.106632
LeftHand -16.695001 -0.000000 0.475032
LeftHandThumb1 -26.253704 0.000000 33.147579
RightShoulder -18.770941 23.570977 -49.174599
RightArm 0.784349 49.476771 32.825789
RightForeArm 31.175061 -0.000000 40.249715
RightHand -4.295706 -0.000000 -31.902240
RightHandThumb1 -24.326973 -0.000000 -32.862282
LeftUpLeg -9.103731 7.035910 -4.565060
LeftLeg -5.679290 -0.000000 0.000000
LeftFoot -40.074276 25.655477 -56.231659
LeftToeBase 50.768726 -0.000000 -0.000000
RightUpLeg -34.782651 -2.409304 4.047109
RightLeg 31.738037 -0.000000 -0.000000
RightFoot -14.062299 -5.322309 -0.062667
RightToeBase -3.566682 -0.000000 0.000000
310
root 51.466204 33.405292 -1.262053 177.608388 -79.783915 -159.688060
Spine -7.767637 9.618225 5.049843
Head 0.355579 -3.915250 1.225353
LeftShoulder -11.237895 11.727813 32.151204
LeftArm 22.343099 -56.092127 -32.018178
LeftForeArm -34.104475 -0.000000 22.346201
LeftHand -16.640173 -0.000000 0.822887
LeftHandThumb1 -26.253704 0.000000 33.147579
RightShoulder -18.707892 23.924077 -49.611824
RightArm 1.924030 49.569927 33.261240
RightForeArm 31.328387 -0.000000 40.585705
RightHand -4.157115 -0.000000 -31.525554
RightHandThumb1 -24.326973 -0.000000 -32.862282
LeftUpLeg -9.297119 7.232006 -4.715331
LeftLeg -5.578459 -0.000000 0.000000
LeftFoot -40.883699 25.516275 -57.280144
LeftToeBase 54.239969 -0.000000 -0.000000
RightUpLeg -34.588329 -2.557725 4.104491
RightLeg 33.410930 -0.000000 -0.000000
RightFoot -14.189775 -5.745764 0.135084
RightToeBase -4.059747 -0.000000 0.000000
311
root 51.587685 33.435853 -1.261110 177.518667 -79.765146 -159.672218
Spine -7.806087 9.630339 5.215785
Head 0.596350 -3.814553 0.919029
LeftShoulder -11.145702 11.465763 32.437750
LeftArm 22.789085 -56.271157 -31.915397
LeftForeArm -33.929264 0.000000 22.589500
LeftHand -16.605887 -0.000000 1.150975
LeftHandThumb1 -26.253704 0.000000 33.147579
RightShoulder -18.619815 24.381904 -50.077325
RightArm 3.053410 49.639037 33.744491
RightForeArm 31.354185 0.000000 40.896248
RightHand -4.097992 0.000000 -30.989472
RightHandThumb1 -24.326973 -0.000000 -32.862282
LeftUpLeg -9.581552 7.423934 -4.748698
LeftLeg -5.530689 -0.000000 0.000000
LeftFoot -42.022249 25.257058 -58.717816
LeftToeBase 59.498780 -0.000000 -0.000000
RightUpLeg -34.225482 -2.513557 4.114855
RightLeg 34.650330 -0.000000 -0.000000
RightFoot -14.232396 -5.941642 0.137780
RightToeBase -4.407065 -0.000000 0.000000
312
root 51.697415 33.458219 -1.255984 177.752207 -79.826277 -159.989905
Spine -7.861332 9.633093 5.281820
Head 0.796616 -3.815831 0.728549
LeftShoulder -11.018326 11.020672 32.822033
LeftArm 23.080813 -56.286618 -31.719026
LeftForeArm -33.762063 0.000000 22.854595
LeftHand -16.647764 -0.000000 1.504625
LeftHandThumb1 -26.253704 0.000000 33.147579
RightShoulder -18.657476 24.721809 -50.515148
RightArm 4.354178 49.559896 34.321912
RightForeArm 31.298808 -0.000000 41.186078
RightHand -4.098229 0.000000 -30.559050
RightHandThumb1 -24.326973 -0.000000 -32.862282
LeftUpLeg -9.831685 7.747811 -4.904258
LeftLeg -5.536672 -0.000000 0.000000
LeftFoot -42.916815 25.024735 -59.911800
LeftToeBase 64.230422 -0.000000 -0.000000
RightUpLeg -33.840500 -2.643228 4.093149
RightLeg 35.872648 -0.000000 -0.000000
RightFoot -14.360486 -5.947886 0.144937
RightToeBase -4.628861 -0.000000 0.000000
313
root 51.798066 33.474352 -1.252793 177.996722 -79.949814 -160.388958
Spine -7.869146 9.541613 5.335408
Head 1.011328 -3.795815 0.551324
LeftShoulder -10.838082 10.635034 33.149836
LeftArm 23.565209 -56.672882 -31.686917
LeftForeArm -33.345012 -0.000000 23.074356
LeftHand -16.726121 -0.000000 1.833064
LeftHandThumb1 -26.253704 0.000000 33.147579
RightShoulder -18.641068 25.037502 -50.961158
RightArm 5.651978 49.589149 34.993333
RightForeArm 31.193630 -0.000000 41.465330
RightHand -4.042932 -0.000000 -30.290985
RightHandThumb1 -24.326973 -0.000000 -32.862282
LeftUpLeg -9.992988 8.124117 -5.083544
LeftLeg -5.564001 -0.000000 0.000000
LeftFoot -43.895007 24.663266 -61.262967
LeftToeBase 69.529926 -0.000000 -0.000000
RightUpLeg -33.383184 -3.048210 4.189950
RightLeg 37.004147 -0.000000 -0.000000
RightFoot -14.479658 -5.892707 0.453845
RightToeBase -5.148888 -0.000000 0.000000
314
root 51.891083 33.483555 -1.251796 178.351976 -80.051399 -160.852042
Spine -7.989455 9.480286 5.346725
Head 1.226969 -3.868020 0.420403
LeftShoulder -10.690694 10.344981 33.507939
LeftArm 23.961960 -56.837607 -31.509743
LeftForeArm -33.320551 -0.000000 23.276306
LeftHand -16.655731 -0.000000 2.005325
LeftHandThumb1 -26.253704 0.000000 33.147579
RightShoulder -18.594540 25.361674 -51.407974
RightArm 6.860302 49.556302 35.616699
RightForeArm 30.983852 -0.000000 41.726227
RightHand -3.954508 -0.000000 -29.575456
RightHandThumb1 -24.326973 -0.000000 -32.862282
LeftUpLeg -10.181061 8.607183 -5.305468
LeftLeg -5.623749 -0.000000 0.000000
LeftFoot -44.779274 24.302976 -62.440479
LeftToeBase 74.430991 -0.000000 -0.000000
RightUpLeg -32.900668 -3.423767 4.287425
RightLeg 37.920778 -0.000000 -0.000000
RightFoot -14.511754 -5.927379 0.689967
RightToeBase -5.724506 -0.000000 0.000000
315
root 51.976095 33.490014 -1.255228 178.729164 -80.215469 -161.369110
Spine -8.100234 9.378946 5.325630
Head 1.457986 -3.995419 0.316052
LeftShoulder -10.548206 9.982821 33.921839
LeftArm 24.444197 -57.032357 -31.468679
LeftForeArm -33.247434 -0.000000 23.456588
LeftHand -16.584685 -0.000000 2.027020
LeftHandThumb1 -26.253704 0.000000 33.147579
RightShoulder -18.577851 25.620725 -51.854776
RightArm 8.118042 49.597903 36.345465
RightForeArm 30.900007 -0.000000 41.957925
RightHand -3.814655 -0.000000 -28.822034
RightHandThumb1 -24.326973 -0.000000 -32.862282
LeftUpLeg -10.311452 9.160734 -5.527124
LeftLeg -5.703360 -0.000000 0.000000
LeftFoot -45.186525 23.794394 -62.822708
LeftToeBase 79.257654 -0.000000 -0.000000
RightUpLeg -32.212386 -3.861178 4.308187
RightLeg 38.405406 -0.000000 -0.000000
RightFoot -14.663401 -5.845766 0.724017
RightToeBase -5.969180 -0.000000 0.000000
